PathFileType	4	(X/Y/Z)	/Users/mathieubourgeois/Desktop/Analyse/Traitement/Sujet_08/Data/Transformed_Sujet_08_velo_100.trc
DataRate	CameraRate	NumFrames	NumMarkers	Units	OrigDataRate	OrigDataStartFrame	OrigNumFrames
120.000000	120.000000	4	35	mm	120.000000	0	1862
Frame#	Time	RFHD			RANE			STRN			LANI			LKNE			T10			RHUM			RWRB			C7			LFWT			LTOE			RTOE			LWRA			LBWT			RBWT			RFWT			LKNI			RKNI			RKNE			LANE			RANI			LHEE			LHUM			LRAD			RRAD			RWRA			LWRB			LFHD			LBHD			RBHD			RSHO			LSHO			CLAV			LCAR			RCAR			
		X1	Y1	Z1	X2	Y2	Z2	X3	Y3	Z3	X4	Y4	Z4	X5	Y5	Z5	X6	Y6	Z6	X7	Y7	Z7	X8	Y8	Z8	X9	Y9	Z9	X10	Y10	Z10	X11	Y11	Z11	X12	Y12	Z12	X13	Y13	Z13	X14	Y14	Z14	X15	Y15	Z15	X16	Y16	Z16	X17	Y17	Z17	X18	Y18	Z18	X19	Y19	Z19	X20	Y20	Z20	X21	Y21	Z21	X22	Y22	Z22	X23	Y23	Z23	X24	Y24	Z24	X25	Y25	Z25	X26	Y26	Z26	X27	Y27	Z27	X28	Y28	Z28	X29	Y29	Z29	X30	Y30	Z30	X31	Y31	Z31	X32	Y32	Z32	X33	Y33	Z33	X34	Y34	Z34	X35	Y35	Z35	

1	0	273.3837280273438	1349.435791015625	107.2023849487304	-46.90465545654299	460.16552734375	180.2527770996093	-49.1287841796875	1158.296020507812	19.54691696166984	-281.4934387207031	418.4306030273438	-73.49832153320318	-40.92144393920896	745.4559936523438	-159.449935913086	-192.7531127929688	1350.438598632812	12.73321819305409	131.4140319824218	1063.106079101562	206.2118988037109	332.4369812011718	906.8984985351562	249.3491973876953	47.2211799621582	1423.96630859375	16.10465812683097	-257.8409423828125	1095.074584960938	-107.5657348632813	-199.3756256103516	246.5907287597656	-110.878173828125	133.7860412597656	389.9872436523438	134.2850952148438	356.0548095703125	936.76611328125	-179.3454132080078	-397.6072692871094	1156.415771484375	-43.04544830322278	-395.0375366210938	1157.352905273438	88.88584899902332	-240.1468048095703	1097.106079101562	122.2292175292968	-75.45063781738281	688.4948120117188	-54.21007919311528	44.46317291259765	798.2095336914062	77.54843139648433	16.8928756713867	859.2857055664062	182.7778167724609	-318.0852966308594	425.9284057617188	-152.3578338623047	-29.78587722778321	474.4756774902344	100.988166809082	-364.0940246582031	431.6656799316406	-108.043083190918	120.4012451171875	1055.091064453125	-191.0184631347657	162.7519073486328	1081.170776367188	-254.2021636962891	167.1763305664062	1082.025512695312	257.4622802734374	353.9972229003906	928.2940063476562	181.9546966552734	328.9066467285156	890.9506225585938	-231.9566955566407	298.9793701171875	1336.681884765625	-14.13075828552251	228.8877868652344	1469.613891601562	-56.29014205932624	206.2981414794922	1499.908203125	77.71701049804682	67.99033355712889	1355.675537109375	147.4878540039062	63.28822708129884	1349.343994140625	-129.6040344238282	60.42811965942383	1288.009033203125	16.18670463562005	424.8499755859376	911.4827270507812	-259.0319213867188	431.8978576660156	913.2529296875	269.7909851074219	
2	0.008333333333333333	272.7796020507812	1349.088500976562	106.4679260253906	-43.55312347412112	443.3107604980469	179.8185577392578	-49.77178192138672	1157.688232421875	18.80989646911613	-282.7932739257812	433.3961181640625	-72.31877899169928	-33.29869079589842	754.5104370117188	-159.7266387939454	-193.5406188964844	1349.882080078125	12.5407428741454	131.2358703613281	1062.898315429688	205.7845611572265	332.4172973632812	906.9362182617188	249.0518493652343	46.54320907592773	1423.565185546875	15.29862785339347	-258.5958862304688	1095.054565429688	-107.1227645874024	-203.6935119628906	261.5828857421875	-110.6554718017579	137.9086608886718	373.4625549316406	134.1167144775391	355.7261352539062	936.8781127929688	-179.6605377197266	-398.2949829101562	1155.8525390625	-42.17811203002942	-395.0093688964844	1156.015502929688	89.83148193359364	-239.4000244140625	1095.512939453125	122.5913314819335	-66.10181427001953	698.0121459960938	-54.33977890014653	40.72018814086913	784.3419189453125	78.2481307983398	12.14552783966062	845.1205444335938	183.1201019287109	-318.6436767578125	442.832763671875	-153.0435028076172	-25.0649814605713	457.704345703125	100.0970306396484	-364.998291015625	450.1770935058594	-109.6520919799805	119.9066696166992	1054.8779296875	-191.7103729248047	162.268051147461	1081.007446289062	-254.8047790527344	167.0190124511718	1081.910766601562	256.9701843261718	353.9398498535156	928.2642822265625	181.7232208251953	328.6473083496094	890.9765625	-232.2747344970703	298.3229370117188	1336.244873046875	-14.94126510620122	228.2322998046875	1469.151245117188	-57.1038894653321	205.7469787597656	1499.598022460938	76.89601898193354	67.46430206298827	1355.3212890625	146.5713806152343	62.38055801391603	1349.09912109375	-130.4980010986329	59.77297592163086	1287.578247070312	15.34402847290032	424.6305236816407	911.50390625	-259.2713317871094	431.8822326660156	913.4060668945312	269.5198974609375	
3	0.01666666666666667	271.5330810546875	1349.192504882812	108.8342361450195	-41.44221496582033	426.4803161621094	179.2082824707031	-50.11313629150391	1157.206176757812	17.98946380615227	-281.6282348632812	450.117431640625	-74.73487091064459	-25.70154762268064	764.2670288085938	-159.8947906494141	-194.2319488525391	1349.37841796875	12.32981777191151	131.0562133789062	1062.59912109375	205.3470458984375	332.3886718749999	906.9410400390625	248.8878784179687	45.96759796142578	1423.217529296875	14.41308689117423	-259.2950134277344	1095.07275390625	-106.6595687866212	-206.4516906738281	276.9399719238281	-110.3867340087891	140.7066650390625	356.4932250976562	133.8494873046875	355.4958801269531	937.008056640625	-179.8889617919922	-398.8886108398438	1155.411743164062	-41.16150283813489	-394.7990112304688	1154.791870117188	90.97267913818348	-238.6192321777344	1093.919189453125	123.2142639160155	-60.4499168395996	707.72412109375	-54.80393218994146	34.58975219726562	769.1255493164062	78.29873657226558	6.72569417953489	830.5974731445312	183.4950103759765	-317.5141906738281	459.9834594726562	-153.5517272949219	-23.98395729064942	441.5661010742188	99.92125701904294	-364.02099609375	468.7433471679688	-110.8123168945313	119.4373321533203	1054.648315429688	-192.3853912353516	161.8827819824219	1080.769287109375	-255.4016571044922	166.8522186279297	1081.729736328125	256.5413513183593	353.8658752441406	928.1509399414062	181.5548095703125	328.4750976562501	891.02099609375	-232.4657897949219	297.7676391601562	1335.921752929688	-15.73999214172368	227.6393890380859	1468.833374023438	-57.89857864379889	205.2450561523438	1499.318725585938	76.08628082275385	67.07292175292967	1354.970581054688	145.6188964843749	61.49402618408205	1348.844482421875	-131.519989013672	59.25605773925781	1287.21923828125	14.46030616760247	424.4754638671876	911.5824584960938	-259.3925170898438	431.8285522460937	913.5330200195312	269.3939208984375	
4	0.025	270.3506469726562	1348.663330078125	108.4873962402343	-40.80020904541018	409.5054931640625	178.4258728027343	-50.26127624511719	1156.8623046875	17.03750801086418	-280.1102294921875	466.860107421875	-73.78404998779303	-17.54038810729978	775.1094360351562	-159.9784393310547	-194.8186187744141	1349.197998046875	11.73385429382314	130.7540893554687	1062.038696289062	205.0294952392578	332.3493957519531	906.875	248.7973480224609	45.55058670043945	1422.890747070312	13.46315193176261	-259.889892578125	1095.078857421875	-106.0714645385743	-207.5631713867188	292.8639526367188	-110.2024536132813	141.9793090820312	338.9111938476562	133.7455749511719	355.4291381835938	937.3162231445312	-180.0335083007812	-399.4037170410156	1155.03369140625	-40.01370620727551	-394.4420471191406	1153.724853515625	92.26626586914051	-237.7841339111328	1092.353637695312	123.8937530517577	-53.87060546874999	718.43017578125	-54.96118164062505	28.45153617858886	754.7669677734375	79.19906616210933	0.2175881862640155	815.6710205078125	184.0757141113281	-315.4802856445312	476.9148864746094	-153.8808288574219	-19.94769668579103	425.0459289550781	98.3544998168945	-362.40625	486.5252380371094	-111.3191146850587	119.0970535278321	1054.398071289062	-192.9193572998047	161.7292633056641	1080.534301757812	-255.8679656982422	166.4410095214843	1081.719604492188	256.2756347656249	354.3183898925781	928.1016235351562	181.5232086181641	328.3912048339844	891.0653076171875	-232.5581817626953	297.4310913085938	1335.646606445312	-16.36411476135259	227.2295532226562	1468.612915039062	-58.74610900878913	204.2778015136719	1499.1572265625	75.47242736816401	67.90576171874999	1354.594116210938	144.689468383789	60.74587631225587	1348.605346679688	-132.5812377929688	58.91408920288086	1286.91015625	13.46844959259026	424.3884582519532	911.6844482421875	-259.4090576171875	431.7721252441406	913.5889282226562	269.4040222167969	
